<svg id="noti-top" xmlns="http://www.w3.org/2000/svg" width="360" height="191" viewBox="0 0 360 191">
  <g id="Group_1" data-name="Group 1" transform="translate(0 40)">
    <path id="Rectangle" d="M0,0H360a0,0,0,0,1,0,0V170a21,21,0,0,1-21,21H21A21,21,0,0,1,0,170V0A0,0,0,0,1,0,0Z" transform="translate(0 -40)" fill="#fd5d5d"/>
    <text id="cappi" transform="translate(147 37)" fill="#fff" font-size="20" font-family="Cocogoose"><tspan x="0" y="0">cappi</tspan></text>
    <text id="Seu_nome_foi_negativ" data-name="Seu nome foi negativ" transform="translate(103 65)" fill="#fff" font-size="16" font-family="Avenir-Black, Avenir" font-weight="800"><tspan x="0" y="16">Seu nome foi negativado!</tspan><tspan font-family="Avenir-Medium, Avenir" font-weight="500"><tspan x="0" y="37">Clique aqui e confira os </tspan><tspan x="0" y="58">detalhes.</tspan></tspan></text>
    <path id="Combined_Shape" data-name="Combined Shape" d="M8.26,60a3.4,3.4,0,0,1-3.388-3.388V50.245A5.8,5.8,0,0,1,.614,41.919a.483.483,0,0,1,.025-.048L4.873,34.46V3.387A3.4,3.4,0,0,1,8.26,0H36.325a3.4,3.4,0,0,1,3.387,3.387V34.46l4.234,7.411a.492.492,0,0,1,.026.048,5.8,5.8,0,0,1-4.26,8.326v6.368A3.4,3.4,0,0,1,36.325,60ZM6.809,56.613A1.456,1.456,0,0,0,8.26,58.064H36.325a1.456,1.456,0,0,0,1.452-1.452v-6.29H6.809ZM18.831,13.927l-.026.048L2.334,42.809a3.871,3.871,0,0,0,3.473,5.578H38.793a3.87,3.87,0,0,0,3.458-5.578L25.78,13.974l-.025-.048a3.871,3.871,0,0,0-6.924,0Zm8.643-.89,10.3,18.035V3.387a1.454,1.454,0,0,0-1.452-1.451h-7.47L28.07,5.073a.966.966,0,0,1-.939.734H17.454a.966.966,0,0,1-.939-.734L15.73,1.936H8.26A1.454,1.454,0,0,0,6.809,3.387V31.072l10.3-18.035a5.806,5.806,0,0,1,10.362,0ZM18.21,3.871h8.166l.483-1.935H17.726ZM19.389,57.1a.968.968,0,0,1,0-1.936H25.2a.968.968,0,0,1,0,1.936ZM5.815,45.483a.966.966,0,0,1-.839-1.448l16.4-28.714.048-.1a.967.967,0,0,1,1.732,0l.048.1,16.4,28.714a.967.967,0,0,1-.837,1.448Zm1.669-1.935H37.1L22.292,17.624Zm12.873-.967a.969.969,0,0,1-.968-.968V37.742a.969.969,0,0,1,.968-.967h3.871a.969.969,0,0,1,.968.967v3.871a.969.969,0,0,1-.968.968Zm.968-1.936H23.26V38.71H21.325Zm-.968-4.838a.969.969,0,0,1-.968-.967V25.161a.969.969,0,0,1,.968-.968h3.871a.969.969,0,0,1,.968.968v9.678a.969.969,0,0,1-.968.967Zm.968-1.935H23.26V26.13H21.325Z" transform="translate(45.087 68)" fill="#ffc200"/>
  </g>
</svg>
