<svg xmlns="http://www.w3.org/2000/svg" xmlns:xlink="http://www.w3.org/1999/xlink" width="370.001" height="230.625" viewBox="0 0 370.001 230.625">
  <defs>
    <filter id="Union_2" x="0" y="0" width="370.001" height="230.625" filterUnits="userSpaceOnUse">
      <feOffset dy="3" input="SourceAlpha"/>
      <feGaussianBlur stdDeviation="8.5" result="blur"/>
      <feFlood flood-opacity="0.341"/>
      <feComposite operator="in" in2="blur"/>
      <feComposite in="SourceGraphic"/>
    </filter>
  </defs>
  <g id="Group_72" data-name="Group 72" transform="translate(-1306.997 -677.08)">
    <g transform="matrix(1, 0, 0, 1, 1307, 677.08)" filter="url(#Union_2)">
      <path id="Union_2-2" data-name="Union 2" d="M-12753.768,23983.922v-24.232H-12892a21,21,0,0,1-21.006-21v-109.525a21,21,0,0,1,21.006-21h277a21,21,0,0,1,21,21v109.525a21,21,0,0,1-21,21h-110.454l-22.749,26.961a2.966,2.966,0,0,1-2.281,1.141A3.583,3.583,0,0,1-12753.768,23983.922Z" transform="translate(12938.5 -23785.67)" fill="#fff"/>
    </g>
    <text id="E_ai_Fulano_posso_t" data-name="E ai Fulano, posso t" transform="translate(1360 728.5)" fill="#5c5c5c" font-size="16" font-family="Avenir-Medium, Avenir" font-weight="500"><tspan x="0" y="16">E ai Fulano, posso te ajudar com </tspan><tspan x="0" y="35">algumas das suas contas</tspan></text>
    <text id="_3_das_empresas_das_s" data-name="3 das empresas das s" transform="translate(1360 779.5)" fill="#5c5c5c" font-size="16" font-family="Avenir-Medium, Avenir" font-weight="500"><tspan x="0" y="16">3 das empresas das sua lista estão </tspan><tspan x="0" y="35">com campanha de quitação esse </tspan></text>
  </g>
</svg>
