<svg xmlns="http://www.w3.org/2000/svg" width="49" height="49" viewBox="0 0 49 49">
  <g id="Group_69" data-name="Group 69" transform="translate(-16738 20269)">
    <circle id="Ellipse_1" data-name="Ellipse 1" cx="24.5" cy="24.5" r="24.5" transform="translate(16738 -20269)" fill="none"/>
    <path id="bell-solid" d="M17.04,38.949a4.868,4.868,0,0,0,4.866-4.869H12.173A4.868,4.868,0,0,0,17.04,38.949ZM33.425,27.56c-1.47-1.579-4.22-3.955-4.22-11.737a12.013,12.013,0,0,0-9.733-11.8V2.434a2.433,2.433,0,1,0-4.866,0V4.02a12.013,12.013,0,0,0-9.733,11.8c0,7.782-2.75,10.158-4.22,11.737A2.377,2.377,0,0,0,0,29.212a2.436,2.436,0,0,0,2.442,2.434h29.2a2.436,2.436,0,0,0,2.442-2.434A2.375,2.375,0,0,0,33.425,27.56Z" transform="translate(16745.215 -20264.184)" fill="#fff"/>
  </g>
</svg>
