<svg xmlns="http://www.w3.org/2000/svg" width="266" height="78" viewBox="0 0 266 78">
  <g id="Group_73" data-name="Group 73" transform="translate(-0.021 0.5)" opacity="0.19">
    <circle id="Ellipse_16" data-name="Ellipse 16" cx="5.5" cy="5.5" r="5.5" transform="translate(0.021 -0.5)" fill="#14cb83"/>
    <circle id="Ellipse_45" data-name="Ellipse 45" cx="5.5" cy="5.5" r="5.5" transform="translate(0.021 16.5)" fill="#14cb83"/>
    <circle id="Ellipse_60" data-name="Ellipse 60" cx="5.5" cy="5.5" r="5.5" transform="translate(0.021 33.5)" fill="#14cb83"/>
    <ellipse id="Ellipse_75" data-name="Ellipse 75" cx="5.5" cy="6" rx="5.5" ry="6" transform="translate(0.021 49.5)" fill="#14cb83"/>
    <circle id="Ellipse_90" data-name="Ellipse 90" cx="5.5" cy="5.5" r="5.5" transform="translate(0.021 66.5)" fill="#14cb83"/>
    <circle id="Ellipse_25" data-name="Ellipse 25" cx="5.5" cy="5.5" r="5.5" transform="translate(91.021 -0.5)" fill="#14cb83"/>
    <circle id="Ellipse_40" data-name="Ellipse 40" cx="5.5" cy="5.5" r="5.5" transform="translate(91.021 16.5)" fill="#14cb83"/>
    <circle id="Ellipse_55" data-name="Ellipse 55" cx="5.5" cy="5.5" r="5.5" transform="translate(91.021 33.5)" fill="#14cb83"/>
    <ellipse id="Ellipse_70" data-name="Ellipse 70" cx="5.5" cy="6" rx="5.5" ry="6" transform="translate(91.021 49.5)" fill="#14cb83"/>
    <circle id="Ellipse_85" data-name="Ellipse 85" cx="5.5" cy="5.5" r="5.5" transform="translate(91.021 66.5)" fill="#14cb83"/>
    <circle id="Ellipse_30" data-name="Ellipse 30" cx="5.5" cy="5.5" r="5.5" transform="translate(182.021 -0.5)" fill="#14cb83"/>
    <circle id="Ellipse_35" data-name="Ellipse 35" cx="5.5" cy="5.5" r="5.5" transform="translate(182.021 16.5)" fill="#14cb83"/>
    <circle id="Ellipse_50" data-name="Ellipse 50" cx="5.5" cy="5.5" r="5.5" transform="translate(182.021 33.5)" fill="#14cb83"/>
    <ellipse id="Ellipse_65" data-name="Ellipse 65" cx="5.5" cy="6" rx="5.5" ry="6" transform="translate(182.021 49.5)" fill="#14cb83"/>
    <circle id="Ellipse_80" data-name="Ellipse 80" cx="5.5" cy="5.5" r="5.5" transform="translate(182.021 66.5)" fill="#14cb83"/>
    <ellipse id="Ellipse_17" data-name="Ellipse 17" cx="6.5" cy="5.5" rx="6.5" ry="5.5" transform="translate(17.021 -0.5)" fill="#14cb83"/>
    <ellipse id="Ellipse_44" data-name="Ellipse 44" cx="6.5" cy="5.5" rx="6.5" ry="5.5" transform="translate(17.021 16.5)" fill="#14cb83"/>
    <ellipse id="Ellipse_59" data-name="Ellipse 59" cx="6.5" cy="5.5" rx="6.5" ry="5.5" transform="translate(17.021 33.5)" fill="#14cb83"/>
    <ellipse id="Ellipse_74" data-name="Ellipse 74" cx="6.5" cy="6" rx="6.5" ry="6" transform="translate(17.021 49.5)" fill="#14cb83"/>
    <ellipse id="Ellipse_89" data-name="Ellipse 89" cx="6.5" cy="5.5" rx="6.5" ry="5.5" transform="translate(17.021 66.5)" fill="#14cb83"/>
    <ellipse id="Ellipse_24" data-name="Ellipse 24" cx="6" cy="5.5" rx="6" ry="5.5" transform="translate(108.021 -0.5)" fill="#14cb83"/>
    <ellipse id="Ellipse_39" data-name="Ellipse 39" cx="6" cy="5.5" rx="6" ry="5.5" transform="translate(108.021 16.5)" fill="#14cb83"/>
    <ellipse id="Ellipse_54" data-name="Ellipse 54" cx="6" cy="5.5" rx="6" ry="5.5" transform="translate(108.021 33.5)" fill="#14cb83"/>
    <circle id="Ellipse_69" data-name="Ellipse 69" cx="6" cy="6" r="6" transform="translate(108.021 49.5)" fill="#14cb83"/>
    <ellipse id="Ellipse_84" data-name="Ellipse 84" cx="6" cy="5.5" rx="6" ry="5.5" transform="translate(108.021 66.5)" fill="#14cb83"/>
    <ellipse id="Ellipse_29" data-name="Ellipse 29" cx="6" cy="5.5" rx="6" ry="5.5" transform="translate(199.021 -0.5)" fill="#14cb83"/>
    <ellipse id="Ellipse_33" data-name="Ellipse 33" cx="6" cy="5.5" rx="6" ry="5.5" transform="translate(199.021 16.5)" fill="#14cb83"/>
    <ellipse id="Ellipse_48" data-name="Ellipse 48" cx="6" cy="5.5" rx="6" ry="5.5" transform="translate(199.021 33.5)" fill="#14cb83"/>
    <circle id="Ellipse_63" data-name="Ellipse 63" cx="6" cy="6" r="6" transform="translate(199.021 49.5)" fill="#14cb83"/>
    <ellipse id="Ellipse_78" data-name="Ellipse 78" cx="6" cy="5.5" rx="6" ry="5.5" transform="translate(199.021 66.5)" fill="#14cb83"/>
    <ellipse id="Ellipse_18" data-name="Ellipse 18" cx="6" cy="5.5" rx="6" ry="5.5" transform="translate(36.021 -0.5)" fill="#14cb83"/>
    <ellipse id="Ellipse_43" data-name="Ellipse 43" cx="6" cy="5.5" rx="6" ry="5.5" transform="translate(36.021 16.5)" fill="#14cb83"/>
    <ellipse id="Ellipse_58" data-name="Ellipse 58" cx="6" cy="5.5" rx="6" ry="5.5" transform="translate(36.021 33.5)" fill="#14cb83"/>
    <circle id="Ellipse_73" data-name="Ellipse 73" cx="6" cy="6" r="6" transform="translate(36.021 49.5)" fill="#14cb83"/>
    <ellipse id="Ellipse_88" data-name="Ellipse 88" cx="6" cy="5.5" rx="6" ry="5.5" transform="translate(36.021 66.5)" fill="#14cb83"/>
    <circle id="Ellipse_23" data-name="Ellipse 23" cx="5.5" cy="5.5" r="5.5" transform="translate(127.021 -0.5)" fill="#14cb83"/>
    <circle id="Ellipse_38" data-name="Ellipse 38" cx="5.5" cy="5.5" r="5.5" transform="translate(127.021 16.5)" fill="#14cb83"/>
    <circle id="Ellipse_53" data-name="Ellipse 53" cx="5.5" cy="5.5" r="5.5" transform="translate(127.021 33.5)" fill="#14cb83"/>
    <ellipse id="Ellipse_68" data-name="Ellipse 68" cx="5.5" cy="6" rx="5.5" ry="6" transform="translate(127.021 49.5)" fill="#14cb83"/>
    <circle id="Ellipse_83" data-name="Ellipse 83" cx="5.5" cy="5.5" r="5.5" transform="translate(127.021 66.5)" fill="#14cb83"/>
    <ellipse id="Ellipse_28" data-name="Ellipse 28" cx="6" cy="5.5" rx="6" ry="5.5" transform="translate(218.021 -0.5)" fill="#14cb83"/>
    <ellipse id="Ellipse_34" data-name="Ellipse 34" cx="6" cy="5.5" rx="6" ry="5.5" transform="translate(218.021 16.5)" fill="#14cb83"/>
    <ellipse id="Ellipse_49" data-name="Ellipse 49" cx="6" cy="5.5" rx="6" ry="5.5" transform="translate(218.021 33.5)" fill="#14cb83"/>
    <circle id="Ellipse_64" data-name="Ellipse 64" cx="6" cy="6" r="6" transform="translate(218.021 49.5)" fill="#14cb83"/>
    <ellipse id="Ellipse_79" data-name="Ellipse 79" cx="6" cy="5.5" rx="6" ry="5.5" transform="translate(218.021 66.5)" fill="#14cb83"/>
    <circle id="Ellipse_19" data-name="Ellipse 19" cx="5.5" cy="5.5" r="5.5" transform="translate(55.021 -0.5)" fill="#14cb83"/>
    <circle id="Ellipse_42" data-name="Ellipse 42" cx="5.5" cy="5.5" r="5.5" transform="translate(55.021 16.5)" fill="#14cb83"/>
    <circle id="Ellipse_57" data-name="Ellipse 57" cx="5.5" cy="5.5" r="5.5" transform="translate(55.021 33.5)" fill="#14cb83"/>
    <ellipse id="Ellipse_72" data-name="Ellipse 72" cx="5.5" cy="6" rx="5.5" ry="6" transform="translate(55.021 49.5)" fill="#14cb83"/>
    <circle id="Ellipse_87" data-name="Ellipse 87" cx="5.5" cy="5.5" r="5.5" transform="translate(55.021 66.5)" fill="#14cb83"/>
    <ellipse id="Ellipse_22" data-name="Ellipse 22" cx="6.5" cy="5.5" rx="6.5" ry="5.5" transform="translate(144.021 -0.5)" fill="#14cb83"/>
    <ellipse id="Ellipse_37" data-name="Ellipse 37" cx="6.5" cy="5.5" rx="6.5" ry="5.5" transform="translate(144.021 16.5)" fill="#14cb83"/>
    <ellipse id="Ellipse_52" data-name="Ellipse 52" cx="6.5" cy="5.5" rx="6.5" ry="5.5" transform="translate(144.021 33.5)" fill="#14cb83"/>
    <ellipse id="Ellipse_67" data-name="Ellipse 67" cx="6.5" cy="6" rx="6.5" ry="6" transform="translate(144.021 49.5)" fill="#14cb83"/>
    <ellipse id="Ellipse_82" data-name="Ellipse 82" cx="6.5" cy="5.5" rx="6.5" ry="5.5" transform="translate(144.021 66.5)" fill="#14cb83"/>
    <ellipse id="Ellipse_27" data-name="Ellipse 27" cx="6.5" cy="5.5" rx="6.5" ry="5.5" transform="translate(235.021 -0.5)" fill="#14cb83"/>
    <ellipse id="Ellipse_32" data-name="Ellipse 32" cx="6.5" cy="5.5" rx="6.5" ry="5.5" transform="translate(235.021 16.5)" fill="#14cb83"/>
    <ellipse id="Ellipse_47" data-name="Ellipse 47" cx="6.5" cy="5.5" rx="6.5" ry="5.5" transform="translate(235.021 33.5)" fill="#14cb83"/>
    <ellipse id="Ellipse_62" data-name="Ellipse 62" cx="6.5" cy="6" rx="6.5" ry="6" transform="translate(235.021 49.5)" fill="#14cb83"/>
    <ellipse id="Ellipse_77" data-name="Ellipse 77" cx="6.5" cy="5.5" rx="6.5" ry="5.5" transform="translate(235.021 66.5)" fill="#14cb83"/>
    <circle id="Ellipse_20" data-name="Ellipse 20" cx="5.5" cy="5.5" r="5.5" transform="translate(73.021 -0.5)" fill="#14cb83"/>
    <circle id="Ellipse_41" data-name="Ellipse 41" cx="5.5" cy="5.5" r="5.5" transform="translate(73.021 16.5)" fill="#14cb83"/>
    <circle id="Ellipse_56" data-name="Ellipse 56" cx="5.5" cy="5.5" r="5.5" transform="translate(73.021 33.5)" fill="#14cb83"/>
    <ellipse id="Ellipse_71" data-name="Ellipse 71" cx="5.5" cy="6" rx="5.5" ry="6" transform="translate(73.021 49.5)" fill="#14cb83"/>
    <circle id="Ellipse_86" data-name="Ellipse 86" cx="5.5" cy="5.5" r="5.5" transform="translate(73.021 66.5)" fill="#14cb83"/>
    <ellipse id="Ellipse_21" data-name="Ellipse 21" cx="6" cy="5.5" rx="6" ry="5.5" transform="translate(163.021 -0.5)" fill="#14cb83"/>
    <ellipse id="Ellipse_36" data-name="Ellipse 36" cx="6" cy="5.5" rx="6" ry="5.5" transform="translate(163.021 16.5)" fill="#14cb83"/>
    <ellipse id="Ellipse_51" data-name="Ellipse 51" cx="6" cy="5.5" rx="6" ry="5.5" transform="translate(163.021 33.5)" fill="#14cb83"/>
    <circle id="Ellipse_66" data-name="Ellipse 66" cx="6" cy="6" r="6" transform="translate(163.021 49.5)" fill="#14cb83"/>
    <ellipse id="Ellipse_81" data-name="Ellipse 81" cx="6" cy="5.5" rx="6" ry="5.5" transform="translate(163.021 66.5)" fill="#14cb83"/>
    <circle id="Ellipse_26" data-name="Ellipse 26" cx="5.5" cy="5.5" r="5.5" transform="translate(255.021 -0.5)" fill="#14cb83"/>
    <circle id="Ellipse_31" data-name="Ellipse 31" cx="5.5" cy="5.5" r="5.5" transform="translate(255.021 16.5)" fill="#14cb83"/>
    <circle id="Ellipse_46" data-name="Ellipse 46" cx="5.5" cy="5.5" r="5.5" transform="translate(255.021 33.5)" fill="#14cb83"/>
    <ellipse id="Ellipse_61" data-name="Ellipse 61" cx="5.5" cy="6" rx="5.5" ry="6" transform="translate(255.021 49.5)" fill="#14cb83"/>
    <circle id="Ellipse_76" data-name="Ellipse 76" cx="5.5" cy="5.5" r="5.5" transform="translate(255.021 66.5)" fill="#14cb83"/>
  </g>
</svg>
