<svg xmlns="http://www.w3.org/2000/svg" xmlns:xlink="http://www.w3.org/1999/xlink" width="2468.986" height="607" viewBox="0 0 2468.986 607">
  <defs>
    <filter id="Shape_2_copy" x="0" y="0" width="2468.986" height="607" filterUnits="userSpaceOnUse">
      <feOffset dx="-3.178" dy="6.237" input="SourceAlpha"/>
      <feGaussianBlur stdDeviation="27" result="blur"/>
      <feFlood flood-opacity="0.071"/>
      <feComposite operator="in" in2="blur"/>
      <feComposite in="SourceGraphic"/>
    </filter>
  </defs>
  <g id="Group_68" data-name="Group 68" transform="translate(1619.195 -1986.237)">
    <g id="Ondas" transform="translate(-2417.018 -156)">
      <path id="Shape_2_copy_2" data-name="Shape 2 copy 2" d="M1983.194,2611,882,2399v-.014c.094-.573.629-3.687,1.911-8.8a218.214,218.214,0,0,1,7.325-23.222,254.744,254.744,0,0,1,40.4-70.469c24.125-29.757,54.606-53.466,90.595-70.469a299.216,299.216,0,0,1,32.722-13.113,339.04,339.04,0,0,1,37.346-10.11,396.948,396.948,0,0,1,42.267-6.507c15.2-1.528,31.181-2.3,47.486-2.3,17.866,0,35.669.5,52.915,1.486,16.365.936,32.754,2.34,48.711,4.173,15.023,1.727,30.156,3.89,44.979,6.432,13.792,2.365,27.828,5.145,41.718,8.264,24.019,5.393,48.727,12.035,75.536,20.308,23.735,7.323,46.308,15.034,68.139,22.492l.009,0c36.09,12.329,70.178,23.974,105.605,32.619a511.98,511.98,0,0,0,54.345,10.354c9.493,1.26,19.071,2.224,28.466,2.863,9.825.668,19.809,1.007,29.674,1.007,9.9,0,19.941-.428,29.83-1.272,9.462-.808,19.115-2.026,28.69-3.618a429.8,429.8,0,0,0,54.953-13.079c35.886-10.917,70.5-25.6,107.14-41.153,21.983-9.328,44.713-18.974,68.542-28.127,26.894-10.331,51.614-18.625,75.573-25.358,13.843-3.89,27.814-7.359,41.528-10.311,14.733-3.172,29.741-5.872,44.61-8.024,15.792-2.286,31.986-4.037,48.134-5.2,17.01-1.23,34.538-1.853,52.1-1.853,14.49,0,28.819.659,42.588,1.959,13.175,1.243,26.3,3.118,39,5.571a404.533,404.533,0,0,1,69.686,20.145c43.575,16.821,82.254,39.479,123.2,63.468l.005,0c24.766,14.508,50.376,29.511,78.069,43.757,14.952,7.692,29.131,14.463,43.348,20.7,16.026,7.03,31.629,13.181,47.7,18.8,17.336,6.064,35.223,11.472,53.163,16.073,19.282,4.946,39.38,9.155,59.735,12.511,21.622,3.566,44.3,6.3,67.415,8.118,24.348,1.918,49.988,2.891,76.206,2.891,36.215,0,68.12,1.089,94.829,3.238,24.892,2,45.891,4.973,62.411,8.831a166.629,166.629,0,0,1,20.647,6.1,78.612,78.612,0,0,1,14.462,7,35.828,35.828,0,0,1,8.916,7.739,19.937,19.937,0,0,1,4.01,8.31c.909,4.382.152,9.158-2.249,14.195a57.307,57.307,0,0,1-10.671,14.557c-8.249,8.556-20.311,17.781-35.852,27.42-13.828,8.577-27.906,15.9-37.28,20.529-10.063,4.972-16.918,7.954-17.2,8.079L1983.194,2611Z" fill="#14cb83"/>
      <g transform="matrix(1, 0, 0, 1, 797.82, 2142.24)" filter="url(#Shape_2_copy)">
        <path id="Shape_2_copy-2" data-name="Shape 2 copy" d="M1983.179,2662,882,2450v-.013c.058-.35.6-3.573,1.912-8.8a218.143,218.143,0,0,1,7.324-23.222,254.757,254.757,0,0,1,40.4-70.469c24.124-29.756,54.6-53.465,90.593-70.469a299.3,299.3,0,0,1,32.721-13.113,339.117,339.117,0,0,1,37.345-10.109,396.9,396.9,0,0,1,42.267-6.507c15.2-1.527,31.179-2.3,47.485-2.3,17.864,0,35.667.5,52.914,1.486,16.369.936,32.758,2.34,48.711,4.173,15.021,1.726,30.154,3.89,44.978,6.433,13.794,2.365,27.83,5.145,41.717,8.263,24.015,5.392,48.723,12.035,75.536,20.308,23.737,7.324,46.313,15.036,68.146,22.5l.008,0c36.087,12.328,70.173,23.973,105.6,32.617A511.857,511.857,0,0,0,1674,2351.131c9.491,1.26,19.068,2.224,28.466,2.863,9.82.667,19.8,1.006,29.674,1.006,9.908,0,19.944-.428,29.83-1.272,9.462-.809,19.115-2.026,28.689-3.619a429.888,429.888,0,0,0,54.952-13.079c35.886-10.917,70.5-25.6,107.138-41.153l.023-.01c21.977-9.326,44.7-18.97,68.518-28.117,26.9-10.332,51.618-18.627,75.572-25.358,13.844-3.89,27.816-7.359,41.527-10.312,14.73-3.171,29.739-5.871,44.609-8.023,15.794-2.287,31.989-4.037,48.133-5.2,17.007-1.23,34.535-1.853,52.1-1.853,14.492,0,28.821.659,42.588,1.959,13.177,1.244,26.3,3.118,39,5.571a404.479,404.479,0,0,1,69.685,20.146c43.576,16.821,82.254,39.479,123.2,63.468l.012.007c24.765,14.507,50.372,29.508,78.062,43.753,14.951,7.692,29.13,14.463,43.347,20.7,16.022,7.029,31.625,13.179,47.7,18.8,17.333,6.063,35.22,11.471,53.163,16.073,19.284,4.947,39.382,9.156,59.734,12.512,21.622,3.566,44.3,6.3,67.414,8.118,24.348,1.918,49.987,2.891,76.2,2.891,36.213,0,68.118,1.089,94.828,3.238,24.89,2,45.888,4.973,62.41,8.831a166.551,166.551,0,0,1,20.647,6.1,78.607,78.607,0,0,1,14.462,7,35.82,35.82,0,0,1,8.916,7.739,19.945,19.945,0,0,1,4.01,8.31c.908,4.382.151,9.158-2.25,14.195a57.308,57.308,0,0,1-10.67,14.557c-8.249,8.556-20.311,17.782-35.851,27.42-13.826,8.575-27.9,15.9-37.279,20.529-10.054,4.967-16.918,7.953-17.206,8.078Z" transform="translate(-797.82 -2142.24)" fill="#0ed084"/>
      </g>
      <path id="Shape_2" data-name="Shape 2" d="M867,2501s32.344-205,300-205,370.25,110,550,110,287.094-138,551-138,307.172,214,700,214,102,126,102,126L1968,2713Z" fill="#00d984"/>
    </g>
  </g>
</svg>
