<svg xmlns="http://www.w3.org/2000/svg" width="221.556" height="343.959" viewBox="0 0 221.556 343.959">
  <g id="Group_101" data-name="Group 101" transform="translate(-1017.367 -814.787)">
    <g id="Polygon_1" data-name="Polygon 1" transform="matrix(0.788, 0.616, -0.616, 0.788, 1059.848, 814.787)" fill="none">
      <path d="M39.837,0,79.674,69H0Z" stroke="none"/>
      <path d="M 39.8371696472168 7.999996185302734 L 6.928199768066406 65 L 72.74613952636719 65 L 39.8371696472168 7.999996185302734 M 39.8371696472168 0 L 79.67433929443359 69 L 0 69 L 39.8371696472168 0 Z" stroke="none" fill="#14cb83"/>
    </g>
    <g id="Polygon_3" data-name="Polygon 3" transform="matrix(0.788, 0.616, -0.616, 0.788, 1065.66, 959.707)" fill="none" opacity="0.15">
      <path d="M16.837,0,33.674,29H0Z" stroke="none"/>
      <path d="M 16.8371696472168 7.966524124145508 L 6.947669982910156 25 L 26.72666931152344 25 L 16.8371696472168 7.966524124145508 M 16.8371696472168 0 L 33.67433929443359 29 L 0 29 L 16.8371696472168 0 Z" stroke="none" fill="#14cb83"/>
    </g>
    <g id="Polygon_2" data-name="Polygon 2" transform="translate(1231.453 954.059) rotate(82)" fill="none">
      <path d="M26.837,0,53.674,47H0Z" stroke="none"/>
      <path d="M 26.8371696472168 8.066787719726563 L 6.890182495117188 43 L 46.78415679931641 43 L 26.8371696472168 8.066787719726563 M 26.8371696472168 0 L 53.67433547973633 47 L 3.814697265625e-06 47 L 26.8371696472168 0 Z" stroke="none" fill="#14cb83"/>
    </g>
    <g id="Polygon_4" data-name="Polygon 4" transform="translate(1200.816 1158.746) rotate(-163)" fill="none" opacity="0.63">
      <path d="M19.837,0,39.674,34H0Z" stroke="none"/>
      <path d="M 19.8371696472168 7.937395095825195 L 6.964828491210938 30 L 32.70951080322266 30 L 19.8371696472168 7.937395095825195 M 19.8371696472168 0 L 39.67433929443359 34 L 0 34 L 19.8371696472168 0 Z" stroke="none" fill="#14cb83"/>
    </g>
  </g>
</svg>
