<svg id="Capa_1" enable-background="new 0 0 512 512" height="512" viewBox="0 0 512 512" width="512" xmlns="http://www.w3.org/2000/svg"><g><circle cx="256" cy="414.5" r="7.5"/><circle cx="286" cy="414.5" r="7.5"/><circle cx="226" cy="414.5" r="7.5"/><circle cx="256" cy="37.5" r="7.5"/><path d="m437 45h-143.5v-37.5c0-4.143-3.358-7.5-7.5-7.5h-60c-4.142 0-7.5 3.357-7.5 7.5v37.5h-143.5c-4.142 0-7.5 3.357-7.5 7.5v452c0 4.143 3.358 7.5 7.5 7.5h362c4.142 0 7.5-3.357 7.5-7.5v-452c0-4.143-3.358-7.5-7.5-7.5zm-143.5 45h7.5c4.136 0 7.5 3.364 7.5 7.5s-3.364 7.5-7.5 7.5h-7.5zm-15-75v90h-45v-90zm-60 90h-7.5c-4.136 0-7.5-3.364-7.5-7.5s3.364-7.5 7.5-7.5h7.5zm211 392h-347v-437h136v15h-7.5c-12.407 0-22.5 10.094-22.5 22.5s10.093 22.5 22.5 22.5h90c12.407 0 22.5-10.094 22.5-22.5s-10.093-22.5-22.5-22.5h-7.5v-15h136z"/><path d="m157.5 172.5v46c0 4.143 3.358 7.5 7.5 7.5s7.5-3.357 7.5-7.5v-38.5h167v196h-167v-127.5c0-4.143-3.358-7.5-7.5-7.5s-7.5 3.357-7.5 7.5v135c0 4.143 3.358 7.5 7.5 7.5h182c4.142 0 7.5-3.357 7.5-7.5v-211c0-4.143-3.358-7.5-7.5-7.5h-182c-4.142 0-7.5 3.357-7.5 7.5z"/><path d="m187.5 338.5v15c0 4.143 3.358 7.5 7.5 7.5h122c4.142 0 7.5-3.357 7.5-7.5v-15c0-20.678-16.822-37.5-37.5-37.5h-62c-20.678 0-37.5 16.822-37.5 37.5zm15 0c0-12.406 10.093-22.5 22.5-22.5h62c12.407 0 22.5 10.094 22.5 22.5v7.5h-107z"/><path d="m255.758 286c20.678 0 37.5-16.822 37.5-37.5s-16.822-37.5-37.5-37.5-37.5 16.822-37.5 37.5 16.822 37.5 37.5 37.5zm0-60c12.407 0 22.5 10.094 22.5 22.5s-10.093 22.5-22.5 22.5-22.5-10.094-22.5-22.5 10.093-22.5 22.5-22.5z"/></g></svg>