<svg id="Capa_1" enable-background="new 0 0 512 512" height="512" viewBox="0 0 512 512" width="512" xmlns="http://www.w3.org/2000/svg"><g><path d="m429.5 0h-347c-4.143 0-7.5 3.358-7.5 7.5v497c0 4.142 3.357 7.5 7.5 7.5h347c4.143 0 7.5-3.358 7.5-7.5v-497c0-4.142-3.357-7.5-7.5-7.5zm-7.5 15v452h-332v-452zm-332 482v-15h332v15z"/><path d="m226 240.667h60c4.143 0 7.5-3.358 7.5-7.5v-30c0-4.142-3.357-7.5-7.5-7.5h-60c-4.143 0-7.5 3.358-7.5 7.5v30c0 4.142 3.357 7.5 7.5 7.5zm7.5-30h45v15h-45z"/><path d="m286 331.333h-60c-4.143 0-7.5 3.358-7.5 7.5v30c0 4.142 3.357 7.5 7.5 7.5h60c4.143 0 7.5-3.358 7.5-7.5v-30c0-4.142-3.357-7.5-7.5-7.5zm-7.5 30h-45v-15h45z"/><path d="m226 105h60c4.143 0 7.5-3.358 7.5-7.5v-30c0-4.142-3.357-7.5-7.5-7.5h-60c-4.143 0-7.5 3.358-7.5 7.5v30c0 4.142 3.357 7.5 7.5 7.5zm7.5-30h45v15h-45z"/><path d="m226 255.667h60v15h-60z"/><path d="m286 391.333h-60c-4.143 0-7.5 3.358-7.5 7.5s3.357 7.5 7.5 7.5h60c4.143 0 7.5-3.358 7.5-7.5s-3.357-7.5-7.5-7.5z"/><path d="m226 135h60c4.143 0 7.5-3.358 7.5-7.5s-3.357-7.5-7.5-7.5h-60c-4.143 0-7.5 3.358-7.5 7.5s3.357 7.5 7.5 7.5z"/><path d="m112.5 452h287c4.143 0 7.5-3.358 7.5-7.5v-407c0-4.142-3.357-7.5-7.5-7.5h-287c-4.143 0-7.5 3.358-7.5 7.5v105.667c0 4.142 3.357 7.5 7.5 7.5s7.5-3.358 7.5-7.5v-98.167h272v120.667h-279.5c-4.143 0-7.5 3.358-7.5 7.5v271.333c0 4.142 3.357 7.5 7.5 7.5zm7.5-15v-120.667h272v120.667zm272-256.333v120.667h-272v-120.667z"/></g></svg>