<svg id="Capa_1" enable-background="new 0 0 512 512" height="512" viewBox="0 0 512 512" width="512" xmlns="http://www.w3.org/2000/svg"><g><path d="m67.5 390h-30c-4.143 0-7.5 3.357-7.5 7.5v60c0 4.143 3.357 7.5 7.5 7.5h30c4.143 0 7.5-3.357 7.5-7.5v-60c0-4.143-3.357-7.5-7.5-7.5zm-7.5 60h-15v-45h15z"/><path d="m67.5 300h-30c-4.143 0-7.5 3.357-7.5 7.5v60c0 4.143 3.357 7.5 7.5 7.5h30c4.143 0 7.5-3.357 7.5-7.5v-60c0-4.143-3.357-7.5-7.5-7.5zm-7.5 60h-15v-45h15z"/><path d="m67.5 210h-30c-4.143 0-7.5 3.357-7.5 7.5v60c0 4.143 3.357 7.5 7.5 7.5h30c4.143 0 7.5-3.357 7.5-7.5v-60c0-4.143-3.357-7.5-7.5-7.5zm-7.5 60h-15v-45h15z"/><path d="m444.5 465h30c4.143 0 7.5-3.357 7.5-7.5v-60c0-4.143-3.357-7.5-7.5-7.5h-30c-4.143 0-7.5 3.357-7.5 7.5v60c0 4.143 3.357 7.5 7.5 7.5zm7.5-60h15v45h-15z"/><path d="m444.5 375h30c4.143 0 7.5-3.357 7.5-7.5v-60c0-4.143-3.357-7.5-7.5-7.5h-30c-4.143 0-7.5 3.357-7.5 7.5v60c0 4.143 3.357 7.5 7.5 7.5zm7.5-60h15v45h-15z"/><path d="m444.5 285h30c4.143 0 7.5-3.357 7.5-7.5v-60c0-4.143-3.357-7.5-7.5-7.5h-30c-4.143 0-7.5 3.357-7.5 7.5v60c0 4.143 3.357 7.5 7.5 7.5zm7.5-60h15v45h-15z"/><path d="m127.5 315h257c4.143 0 7.5-3.357 7.5-7.5v-60c0-4.143-3.357-7.5-7.5-7.5h-257c-4.143 0-7.5 3.357-7.5 7.5v60c0 4.143 3.357 7.5 7.5 7.5zm7.5-60h242v45h-242z"/><path d="m127.5 225h257c4.143 0 7.5-3.357 7.5-7.5v-60c0-4.143-3.357-7.5-7.5-7.5h-257c-4.143 0-7.5 3.357-7.5 7.5v60c0 4.143 3.357 7.5 7.5 7.5zm7.5-60h242v45h-242z"/><path d="m504.5 180h-82.5v-52.5c0-4.143-3.357-7.5-7.5-7.5h-151v-45h30.755c3.484 17.096 18.635 30 36.745 30h15c4.143 0 7.5-3.357 7.5-7.5v-60c0-4.143-3.357-7.5-7.5-7.5h-38.253c-3.485-17.096-18.638-30-36.747-30h-15c-4.143 0-7.5 3.357-7.5 7.5v112.5h-151c-4.143 0-7.5 3.357-7.5 7.5v52.5h-82.5c-4.143 0-7.5 3.357-7.5 7.5v317c0 4.143 3.357 7.5 7.5 7.5h497c4.143 0 7.5-3.357 7.5-7.5v-317c0-4.143-3.357-7.5-7.5-7.5zm-196-135h30v45h-7.5c-12.406 0-22.5-10.094-22.5-22.5zm-37.5-30c12.406 0 22.5 10.094 22.5 22.5v22.5h-30v-45zm-83.5 390c-4.143 0-7.5 3.357-7.5 7.5v84.5h-75v-152h75v37.5c0 4.143 3.357 7.5 7.5 7.5h61v107h-53.5v-84.5c0-4.143-3.357-7.5-7.5-7.5zm129.5-30h-122v-30h122zm-53.5 15h53.5v107h-53.5zm68.5-45h75v152h-75zm75-210v195h-302v-195zm-392 60h75v302h-75zm482 302h-75v-302h75z"/></g></svg>