<svg id="Capa_1" enable-background="new 0 0 512 512" height="512" viewBox="0 0 512 512" width="512" xmlns="http://www.w3.org/2000/svg"><g><circle cx="256" cy="387.75" r="7.5"/><path d="m354.465 343.858c-2.929-2.929-7.678-2.929-10.607 0s-2.929 7.678 0 10.607 7.678 2.929 10.607 0 2.929-7.678 0-10.607z"/><circle cx="387.75" cy="256" r="7.5"/><path d="m354.465 168.142c2.929-2.929 2.929-7.678 0-10.607s-7.678-2.929-10.607 0-2.929 7.678 0 10.607 7.678 2.929 10.607 0z"/><circle cx="256" cy="124.25" r="7.5"/><circle cx="162.839" cy="162.839" r="7.5"/><circle cx="124.25" cy="256" r="7.5"/><path d="m157.535 343.858c-2.929 2.929-2.929 7.678 0 10.607s7.678 2.929 10.607 0 2.929-7.678 0-10.607-7.678-2.929-10.607 0z"/><path d="m308.5 229.25c0-28.948-23.552-52.5-52.5-52.5-28.949 0-52.5 23.552-52.5 52.5s23.551 52.5 52.5 52.5c28.948 0 52.5-23.552 52.5-52.5zm-90 0c0-20.678 16.822-37.5 37.5-37.5s37.5 16.822 37.5 37.5-16.822 37.5-37.5 37.5-37.5-16.822-37.5-37.5z"/><path d="m256 146.75c-60.241 0-109.25 49.01-109.25 109.25 0 13.236 2.35 26.188 6.985 38.494 1.46 3.876 5.786 5.835 9.662 4.375s5.835-5.785 4.375-9.662c-3.996-10.61-6.022-21.783-6.022-33.207 0-51.97 42.28-94.25 94.25-94.25s94.25 42.28 94.25 94.25c0 18.937-5.613 36.586-15.264 51.372-6.902-6.714-16.239-10.622-26.153-10.622h-105.666c-13.728 0-26.346 7.491-32.931 19.552-1.456 2.665-1.16 5.945.749 8.308 20.869 25.827 51.855 40.64 85.015 40.64 33.984 0 64.397-15.601 84.45-40.014.402-.397.755-.835 1.053-1.303 14.858-18.662 23.747-42.28 23.747-67.934 0-60.239-49.01-109.249-109.25-109.249zm0 203.5c-26.75 0-51.865-11.179-69.736-30.853 4.224-4.805 10.354-7.647 16.903-7.647h105.666c6.535 0 12.653 2.832 16.877 7.617-17.252 18.964-42.114 30.883-69.71 30.883z"/><path d="m256 410.25c-28.053 0-50.875 22.822-50.875 50.875s22.822 50.875 50.875 50.875 50.875-22.822 50.875-50.875-22.822-50.875-50.875-50.875zm0 86.75c-19.782 0-35.875-16.094-35.875-35.875s16.093-35.875 35.875-35.875c19.781 0 35.875 16.094 35.875 35.875s-16.094 35.875-35.875 35.875z"/><path d="m256 101.75c28.053 0 50.875-22.822 50.875-50.875s-22.822-50.875-50.875-50.875-50.875 22.822-50.875 50.875 22.822 50.875 50.875 50.875zm0-86.75c19.781 0 35.875 16.094 35.875 35.875s-16.094 35.875-35.875 35.875c-19.782 0-35.875-16.094-35.875-35.875s16.093-35.875 35.875-35.875z"/><path d="m365.071 365.071c-19.836 19.836-19.836 52.112 0 71.948s52.112 19.836 71.948 0 19.836-52.112 0-71.948-52.112-19.836-71.948 0zm61.342 61.342c-13.988 13.988-36.747 13.987-50.735 0-13.987-13.987-13.988-36.747 0-50.735 13.988-13.987 36.748-13.987 50.735 0s13.987 36.747 0 50.735z"/><path d="m146.929 146.929c19.836-19.836 19.836-52.112 0-71.948s-52.112-19.836-71.948 0-19.836 52.112 0 71.948 52.112 19.836 71.948 0zm-61.342-61.342c13.987-13.987 36.747-13.987 50.735 0 13.987 13.987 13.987 36.747 0 50.735-13.988 13.988-36.747 13.987-50.735 0-13.987-13.987-13.988-36.747 0-50.735z"/><path d="m437.019 146.929c19.836-19.836 19.836-52.112 0-71.948s-52.112-19.836-71.948 0-19.836 52.112 0 71.948 52.112 19.836 71.948 0zm-61.341-61.342c13.988-13.987 36.748-13.987 50.735 0 13.988 13.988 13.987 36.747 0 50.735s-36.747 13.988-50.735 0c-13.988-13.987-13.988-36.747 0-50.735z"/><path d="m74.981 365.071c-19.836 19.836-19.836 52.112 0 71.948s52.112 19.836 71.948 0 19.836-52.112 0-71.948-52.112-19.836-71.948 0zm61.341 61.342c-13.987 13.987-36.747 13.988-50.735 0-13.987-13.987-13.987-36.747 0-50.735 13.987-13.987 36.747-13.987 50.735 0 13.988 13.988 13.988 36.747 0 50.735z"/><path d="m461.125 205.125c-28.053 0-50.875 22.822-50.875 50.875s22.822 50.875 50.875 50.875 50.875-22.822 50.875-50.875-22.822-50.875-50.875-50.875zm0 86.75c-19.781 0-35.875-16.093-35.875-35.875 0-19.781 16.094-35.875 35.875-35.875s35.875 16.094 35.875 35.875c0 19.782-16.094 35.875-35.875 35.875z"/><path d="m101.75 256c0-28.053-22.822-50.875-50.875-50.875s-50.875 22.822-50.875 50.875 22.822 50.875 50.875 50.875 50.875-22.822 50.875-50.875zm-50.875 35.875c-19.781 0-35.875-16.093-35.875-35.875 0-19.781 16.094-35.875 35.875-35.875s35.875 16.094 35.875 35.875c0 19.782-16.094 35.875-35.875 35.875z"/></g></svg>